<svg width="24" height="24" fill="none" xmlns="http://www.w3.org/2000/svg"><path fill-rule="evenodd" clip-rule="evenodd" d="M5.954 1.488c-2.467 0-4.466 2-4.466 4.465v12.093c0 2.466 2 4.466 4.466 4.466h12.093c2.466 0 4.465-2 4.465-4.466V5.953c0-2.466-2-4.465-4.465-4.465H5.954Zm1.302 2.047a3.72 3.72 0 0 0-3.721 3.72v9.49a3.72 3.72 0 0 0 3.72 3.72h9.49a3.72 3.72 0 0 0 3.72-3.72v-9.49a3.72 3.72 0 0 0-3.72-3.72h-9.49Z" fill="#fff"/><circle cx="17.767" cy="6.233" r="1.395" fill="#fff"/><path fill-rule="evenodd" clip-rule="evenodd" d="M12.093 18.047a5.953 5.953 0 1 0 0-11.907 5.953 5.953 0 0 0 0 11.907Zm0-2.419a3.535 3.535 0 1 0 0-7.07 3.535 3.535 0 0 0 0 7.07Z" fill="#fff"/></svg>