<svg width="155" height="24" fill="none" xmlns="http://www.w3.org/2000/svg"><path d="M10.96.551c.309-.029.6.226.6.592V22.4c0 .626-.5 1.07-1.037 1C4.863 22.651.5 17.83.5 12 .5 6.02 5.09 1.103 10.96.551Zm3.897 6.306C14.857 3.35 17.717.5 21.248.5h11.486c.36 0 .648.29.648.643v5.714a.646.646 0 0 1-.648.643h-9.189c-.908 0-1.648.733-1.648 1.643v1.714a.646.646 0 0 1-.649.643h-5.743a.646.646 0 0 1-.648-.643v-4Zm0 10.286c0-.353.288-.643.649-.643h9.188c.908 0 1.649-.733 1.649-1.643v-1.714c0-.353.288-.643.648-.643h5.743c.36 0 .648.29.648.643v4c0 3.508-2.859 6.357-6.391 6.357H15.505a.646.646 0 0 1-.648-.643v-5.714Z" fill="#66F" stroke="#66F"/><path d="M53.283 16.396h1.974c-.16 1.572-.594 2.93-1.3 4.075a7.04 7.04 0 0 1-2.888 2.615c-1.219.61-2.69.914-4.411.914-1.327 0-2.53-.251-3.61-.754a8 8 0 0 1-2.76-2.134c-.77-.93-1.363-2.042-1.78-3.337-.417-1.294-.626-2.732-.626-4.315v-2.92c0-1.583.209-3.016.626-4.3.417-1.293 1.016-2.406 1.797-3.336a7.989 7.989 0 0 1 2.807-2.15C44.203.251 45.433 0 46.802 0c1.658 0 3.091.305 4.3.914a6.846 6.846 0 0 1 2.855 2.6c.706 1.133 1.14 2.502 1.3 4.106h-1.974c-.15-1.262-.48-2.331-.994-3.208a5.079 5.079 0 0 0-2.134-2.006c-.898-.47-2.016-.705-3.353-.705-1.09 0-2.064.208-2.92.625a6.082 6.082 0 0 0-2.181 1.797c-.6.77-1.06 1.695-1.38 2.775-.31 1.08-.465 2.284-.465 3.61v2.952c0 1.283.15 2.465.449 3.545.3 1.08.738 2.016 1.315 2.808a6.23 6.23 0 0 0 2.15 1.845c.845.438 1.807.657 2.888.657 1.38 0 2.53-.219 3.449-.657a4.938 4.938 0 0 0 2.166-1.99c.513-.877.85-1.967 1.01-3.272ZM73.289 17.936c0-.642-.107-1.214-.321-1.717-.214-.502-.567-.952-1.059-1.347-.481-.407-1.134-.781-1.957-1.123-.813-.353-1.829-.7-3.048-1.043a27.806 27.806 0 0 1-3.16-1.091c-.942-.396-1.75-.85-2.423-1.364a5.39 5.39 0 0 1-1.524-1.796c-.353-.696-.53-1.503-.53-2.423 0-.898.193-1.716.578-2.454a5.747 5.747 0 0 1 1.62-1.91C62.171 1.134 63 .722 63.952.433 64.914.144 65.968 0 67.112 0c1.637 0 3.048.31 4.236.93 1.197.62 2.123 1.46 2.775 2.52.663 1.047.995 2.224.995 3.529h-1.974c0-1.016-.24-1.92-.722-2.712-.47-.802-1.155-1.427-2.053-1.877-.888-.46-1.973-.69-3.257-.69-1.283 0-2.363.198-3.24.594-.867.385-1.524.904-1.974 1.556A3.724 3.724 0 0 0 61.241 6c0 .556.107 1.07.32 1.54.214.46.562.893 1.043 1.3.492.395 1.14.77 1.941 1.123.803.342 1.792.668 2.968.978 1.241.342 2.343.722 3.305 1.14.963.416 1.776.898 2.439 1.443a5.375 5.375 0 0 1 1.508 1.877c.342.717.513 1.55.513 2.503 0 .952-.203 1.807-.61 2.567a5.513 5.513 0 0 1-1.684 1.909c-.717.524-1.567.925-2.55 1.203-.974.278-2.038.417-3.193.417-1.038 0-2.07-.134-3.097-.401a9.561 9.561 0 0 1-2.823-1.235 6.526 6.526 0 0 1-2.038-2.182c-.502-.888-.754-1.947-.754-3.177h1.958c0 .984.197 1.813.593 2.487.396.674.92 1.22 1.572 1.636.663.418 1.39.722 2.182.915.802.182 1.605.273 2.407.273 1.23 0 2.294-.182 3.192-.546.91-.364 1.61-.872 2.102-1.524.502-.663.754-1.433.754-2.31ZM94.096 16.396h1.974c-.16 1.572-.594 2.93-1.3 4.075a7.039 7.039 0 0 1-2.888 2.615c-1.219.61-2.69.914-4.411.914-1.327 0-2.53-.251-3.61-.754a7.999 7.999 0 0 1-2.76-2.134c-.77-.93-1.363-2.042-1.78-3.337-.417-1.294-.626-2.732-.626-4.315v-2.92c0-1.583.209-3.016.626-4.3.417-1.293 1.016-2.406 1.797-3.336a7.99 7.99 0 0 1 2.807-2.15C85.016.251 86.246 0 87.615 0c1.658 0 3.09.305 4.3.914a6.845 6.845 0 0 1 2.855 2.6c.706 1.133 1.14 2.502 1.3 4.106h-1.974c-.15-1.262-.481-2.331-.994-3.208a5.079 5.079 0 0 0-2.134-2.006c-.898-.47-2.016-.705-3.353-.705-1.091 0-2.064.208-2.92.625a6.082 6.082 0 0 0-2.182 1.797c-.599.77-1.059 1.695-1.38 2.775-.31 1.08-.465 2.284-.465 3.61v2.952c0 1.283.15 2.465.45 3.545.3 1.08.738 2.016 1.315 2.808a6.23 6.23 0 0 0 2.15 1.845c.845.438 1.807.657 2.888.657 1.38 0 2.529-.219 3.449-.657a4.938 4.938 0 0 0 2.165-1.99c.514-.877.85-1.967 1.011-3.272ZM108.551 1.717l-8.086 21.962h-2.053L107.235.321h1.428l-.112 1.396Zm7.347 21.962-8.101-21.962-.113-1.396h1.428l8.84 23.358h-2.054Zm-1.443-8.246v1.7h-12.402v-1.7h12.402ZM134.925 21.995v1.684h-12.112v-1.684h12.112ZM123.39.32v23.358h-1.973V.321h1.973ZM146.684 14.166h-6.657V12.48h6.657c1.391 0 2.519-.224 3.385-.674.877-.46 1.514-1.08 1.91-1.86.406-.781.609-1.658.609-2.631 0-.952-.203-1.83-.609-2.632-.396-.802-1.033-1.443-1.91-1.925-.866-.492-1.994-.738-3.385-.738h-5.967V23.68h-1.974V.321h7.941c1.712 0 3.15.294 4.316.882 1.176.588 2.064 1.407 2.663 2.455.599 1.048.898 2.256.898 3.625 0 1.434-.299 2.669-.898 3.706-.599 1.027-1.481 1.813-2.647 2.359-1.166.545-2.61.818-4.332.818Z" fill="#fff"/></svg>