<svg width="155" height="24" viewBox="0 0 155 24" fill="none" xmlns="http://www.w3.org/2000/svg">
<path d="M10.9592 0.551455L10.9592 0.55145C11.2687 0.522355 11.5598 0.776654 11.5598 1.14282V22.4C11.5598 23.0259 11.0605 23.4703 10.5233 23.3993C4.86364 22.6519 0.5 17.8309 0.5 12C0.5 6.02015 5.08935 1.10264 10.9592 0.551455ZM14.8569 6.85714C14.8569 3.34857 17.7161 0.5 21.2483 0.5H32.7338C33.0944 0.5 33.3824 0.790172 33.3824 1.14286V6.85714C33.3824 7.20983 33.0944 7.5 32.7338 7.5H23.5454C22.6371 7.5 21.8968 8.23327 21.8968 9.14286V10.8571C21.8968 11.2098 21.6088 11.5 21.2483 11.5H15.5055C15.1449 11.5 14.8569 11.2098 14.8569 10.8571V6.85714ZM14.8569 17.1429C14.8569 16.7902 15.1449 16.5 15.5055 16.5H24.6939C25.6021 16.5 26.3425 15.7667 26.3425 14.8571V13.1429C26.3425 12.7902 26.6305 12.5 26.991 12.5H32.7338C33.0944 12.5 33.3824 12.7902 33.3824 13.1429V17.1429C33.3824 20.6514 30.5232 23.5 26.991 23.5H15.5055C15.1449 23.5 14.8569 23.2098 14.8569 22.8571V17.1429Z" fill="#6666FF" stroke="#6666FF"></path>
<path d="M53.2834 16.3957H55.2567C55.0962 17.9679 54.6631 19.3262 53.9572 20.4706C53.2513 21.6043 52.2887 22.4759 51.0695 23.0856C49.8502 23.6952 48.3797 24 46.6577 24C45.3315 24 44.1283 23.7487 43.0481 23.246C41.9786 22.7433 41.0588 22.0321 40.2887 21.1123C39.5187 20.1818 38.9251 19.0695 38.508 17.7754C38.0909 16.4813 37.8823 15.0428 37.8823 13.4599V10.5401C37.8823 8.95722 38.0909 7.52406 38.508 6.24064C38.9251 4.94652 39.524 3.83422 40.3048 2.90374C41.0855 1.97326 42.0214 1.25668 43.1123 0.754011C44.2032 0.251337 45.4331 0 46.8021 0C48.4599 0 49.893 0.304813 51.1016 0.914439C52.3101 1.51337 53.262 2.37968 53.9572 3.51337C54.6631 4.64706 55.0962 6.01604 55.2567 7.62032H53.2834C53.1337 6.35829 52.8021 5.28877 52.2887 4.41176C51.7754 3.53476 51.0641 2.86631 50.1551 2.40642C49.2567 1.93583 48.139 1.70053 46.8021 1.70053C45.7112 1.70053 44.7379 1.90909 43.8823 2.3262C43.0267 2.74332 42.2994 3.34225 41.7005 4.12299C41.1016 4.89305 40.6417 5.81818 40.3208 6.8984C40.0107 7.97861 39.8556 9.18182 39.8556 10.508V13.4599C39.8556 14.7433 40.0053 15.9251 40.3048 17.0053C40.6042 18.0856 41.0428 19.0214 41.6203 19.8128C42.2085 20.6043 42.9251 21.2193 43.77 21.6578C44.6149 22.0963 45.5775 22.3155 46.6577 22.3155C48.0374 22.3155 49.1871 22.0963 50.1069 21.6578C51.0374 21.2086 51.7593 20.5455 52.2727 19.6684C52.7861 18.7914 53.123 17.7005 53.2834 16.3957Z" fill="white"></path>
<path d="M73.2887 17.9358C73.2887 17.2941 73.1818 16.7219 72.9679 16.2193C72.754 15.7166 72.401 15.2674 71.9091 14.8717C71.4278 14.4652 70.7754 14.0909 69.9518 13.7487C69.139 13.3957 68.123 13.0481 66.9037 12.7059C65.7379 12.3743 64.6845 12.0107 63.7433 11.615C62.8021 11.2193 61.9946 10.7647 61.3208 10.2513C60.6577 9.73797 60.1497 9.13904 59.7968 8.45455C59.4438 7.75936 59.2674 6.95187 59.2674 6.03209C59.2674 5.13369 59.4599 4.31551 59.8449 3.57754C60.2299 2.83957 60.77 2.20321 61.4652 1.66845C62.1711 1.13369 63 0.721925 63.9518 0.433155C64.9144 0.144385 65.9679 0 67.1123 0C68.7486 0 70.1604 0.31016 71.3476 0.930481C72.5454 1.5508 73.4706 2.39037 74.123 3.4492C74.7861 4.49733 75.1176 5.6738 75.1176 6.97861H73.1444C73.1444 5.96257 72.9037 5.05882 72.4224 4.26738C71.9518 3.46524 71.2674 2.83957 70.369 2.39037C69.4813 1.93048 68.3957 1.70053 67.1123 1.70053C65.8288 1.70053 64.7486 1.8984 63.8716 2.29412C63.0053 2.67914 62.3476 3.19786 61.8984 3.85027C61.4599 4.49198 61.2406 5.20856 61.2406 6C61.2406 6.55615 61.3476 7.06952 61.5615 7.54011C61.7754 8 62.123 8.43316 62.6042 8.83957C63.0962 9.23529 63.7433 9.60963 64.5454 9.96257C65.3476 10.3048 66.3369 10.631 67.5133 10.9412C68.754 11.2834 69.8556 11.6631 70.8182 12.0802C71.7807 12.4973 72.5936 12.9786 73.2567 13.5241C73.9198 14.0588 74.4224 14.6845 74.7647 15.4011C75.1069 16.1176 75.278 16.9519 75.278 17.9037C75.278 18.8556 75.0748 19.7112 74.6684 20.4706C74.2727 21.2193 73.7112 21.8556 72.9839 22.3797C72.2674 22.9037 71.4171 23.3048 70.4331 23.5829C69.4599 23.861 68.3957 24 67.2406 24C66.2032 24 65.1711 23.8663 64.1444 23.5989C63.1176 23.3316 62.1764 22.9198 61.3208 22.3636C60.4759 21.7968 59.7968 21.0695 59.2834 20.1818C58.7807 19.2941 58.5294 18.2353 58.5294 17.0053H60.4866C60.4866 17.9893 60.6845 18.8182 61.0802 19.492C61.4759 20.1658 62 20.7112 62.6524 21.1283C63.3155 21.5455 64.0428 21.8503 64.8342 22.0428C65.6363 22.2246 66.4385 22.3155 67.2406 22.3155C68.4706 22.3155 69.5347 22.1337 70.4331 21.7701C71.3422 21.4064 72.0428 20.8984 72.5347 20.246C73.0374 19.5829 73.2887 18.8128 73.2887 17.9358Z" fill="white"></path>
<path d="M94.0962 16.3957H96.0695C95.9091 17.9679 95.4759 19.3262 94.77 20.4706C94.0641 21.6043 93.1016 22.4759 91.8823 23.0856C90.6631 23.6952 89.1925 24 87.4706 24C86.1444 24 84.9411 23.7487 83.8609 23.246C82.7914 22.7433 81.8716 22.0321 81.1016 21.1123C80.3315 20.1818 79.7379 19.0695 79.3208 17.7754C78.9037 16.4813 78.6952 15.0428 78.6952 13.4599V10.5401C78.6952 8.95722 78.9037 7.52406 79.3208 6.24064C79.7379 4.94652 80.3369 3.83422 81.1176 2.90374C81.8984 1.97326 82.8342 1.25668 83.9251 0.754011C85.016 0.251337 86.246 0 87.6149 0C89.2727 0 90.7059 0.304813 91.9144 0.914439C93.123 1.51337 94.0748 2.37968 94.77 3.51337C95.4759 4.64706 95.9091 6.01604 96.0695 7.62032H94.0962C93.9465 6.35829 93.6149 5.28877 93.1016 4.41176C92.5882 3.53476 91.877 2.86631 90.9679 2.40642C90.0695 1.93583 88.9518 1.70053 87.6149 1.70053C86.524 1.70053 85.5508 1.90909 84.6952 2.3262C83.8395 2.74332 83.1123 3.34225 82.5133 4.12299C81.9144 4.89305 81.4545 5.81818 81.1337 6.8984C80.8235 7.97861 80.6684 9.18182 80.6684 10.508V13.4599C80.6684 14.7433 80.8182 15.9251 81.1176 17.0053C81.4171 18.0856 81.8556 19.0214 82.4331 19.8128C83.0214 20.6043 83.7379 21.2193 84.5829 21.6578C85.4278 22.0963 86.3903 22.3155 87.4706 22.3155C88.8502 22.3155 90 22.0963 90.9198 21.6578C91.8502 21.2086 92.5722 20.5455 93.0855 19.6684C93.5989 18.7914 93.9358 17.7005 94.0962 16.3957Z" fill="white"></path>
<path d="M108.551 1.71658L100.465 23.6791H98.4117L107.235 0.320856H108.663L108.551 1.71658ZM115.898 23.6791L107.797 1.71658L107.684 0.320856H109.112L117.952 23.6791H115.898ZM114.455 15.4332V17.1337H102.053V15.4332H114.455Z" fill="white"></path>
<path d="M134.925 21.9947V23.6791H122.813V21.9947H134.925ZM123.39 0.320856V23.6791H121.417V0.320856H123.39Z" fill="white"></path>
<path d="M146.684 14.1658H140.027V12.4813H146.684C148.075 12.4813 149.203 12.2567 150.069 11.8075C150.946 11.3476 151.583 10.7273 151.979 9.94652C152.385 9.16578 152.588 8.28877 152.588 7.31551C152.588 6.36364 152.385 5.48663 151.979 4.68449C151.583 3.88235 150.946 3.24064 150.069 2.75936C149.203 2.26738 148.075 2.02139 146.684 2.02139H140.717V23.6791H138.743V0.320856H146.684C148.396 0.320856 149.834 0.614973 151 1.20321C152.176 1.79144 153.064 2.60963 153.663 3.65775C154.262 4.70588 154.561 5.91444 154.561 7.28342C154.561 8.71658 154.262 9.95187 153.663 10.9893C153.064 12.016 152.182 12.8021 151.016 13.3476C149.85 13.893 148.406 14.1658 146.684 14.1658Z" fill="white"></path>
</svg>
