<svg width="24" height="24" viewBox="0 0 24 24" fill="none" xmlns="http://www.w3.org/2000/svg">
<path fill-rule="evenodd" clip-rule="evenodd" d="M5.95352 1.48828C3.48749 1.48828 1.4884 3.48737 1.4884 5.9534V18.0464C1.4884 20.5124 3.48749 22.5115 5.95352 22.5115H18.0465C20.5126 22.5115 22.5117 20.5124 22.5117 18.0464V5.9534C22.5117 3.48737 20.5126 1.48828 18.0465 1.48828H5.95352ZM7.25585 3.53479C5.20084 3.53479 3.53491 5.20067 3.53491 7.25572V16.7441C3.53491 18.7991 5.20084 20.465 7.25585 20.465H16.7442C18.7992 20.465 20.4651 18.7991 20.4651 16.7441V7.25572C20.4651 5.20067 18.7992 3.53479 16.7442 3.53479H7.25585Z" fill="white"/>
<circle cx="17.7674" cy="6.23275" r="1.39535" fill="white"/>
<path fill-rule="evenodd" clip-rule="evenodd" d="M12.093 18.0466C15.381 18.0466 18.0465 15.3812 18.0465 12.0931C18.0465 8.80507 15.381 6.13965 12.093 6.13965C8.805 6.13965 6.13953 8.80507 6.13953 12.0931C6.13953 15.3812 8.805 18.0466 12.093 18.0466ZM12.093 15.628C14.0453 15.628 15.6279 14.0454 15.6279 12.0931C15.6279 10.1408 14.0453 8.55825 12.093 8.55825C10.1408 8.55825 8.55813 10.1408 8.55813 12.0931C8.55813 14.0454 10.1408 15.628 12.093 15.628Z" fill="white"/>
</svg>
